<?xml version="1.0" encoding="utf-8"?>
<!-- Generator: Adobe Illustrator 18.1.0, SVG Export Plug-In . SVG Version: 6.00 Build 0)  -->
<svg version="1.1" id="Lager_1" xmlns="http://www.w3.org/2000/svg" xmlns:xlink="http://www.w3.org/1999/xlink" x="0px" y="0px"
	 viewBox="0 0 264.2 81.8" style="enable-background:new 0 0 264.2 81.8;" xml:space="preserve">
<style type="text/css">
	.st0{fill:#1D1D1B;}
	.st1{fill:#0063BE;}
	.st2{fill:#F4AA00;}
	.st3{fill:#E63312;}
}
</style>
<g>
	<path class="st0" d="M97.2,18.4c-2.4,0-2.5,0.1-2.5,1.6v7c0,5.2,0.2,5.9,3,6.2l1.4,0.2c0.3,0.2,0.2,1.1-0.1,1.2
		c-2.7-0.1-4.4-0.2-6.3-0.2c-2.1,0-3.8,0.1-5.8,0.2c-0.3-0.2-0.4-0.9-0.1-1.2l0.8-0.2c2.8-0.5,2.9-1,2.9-6.2V9
		c0-5.2-0.4-6.1-2.9-6.3l-1.3-0.1c-0.3-0.2-0.2-1.1,0.1-1.2c2.4,0,4.1,0.1,6.3,0.1c1.9,0,3.6-0.1,5.8-0.1c0.3,0.1,0.4,1,0.1,1.2
		l-0.9,0.1c-2.9,0.3-3,1-3,6.3v5.7c0,1.5,0.1,1.6,2.5,1.6h14.3c2.4,0,2.5,0,2.5-1.6V9c0-5.2-0.1-6-3-6.3l-0.9-0.1
		c-0.3-0.2-0.2-1.1,0.1-1.2c2.3,0.1,4,0.1,6,0.1c1.9,0,3.6-0.1,5.9-0.1c0.3,0.1,0.4,1,0.1,1.2l-1,0.1c-2.9,0.3-3,1-3,6.3v18
		c0,5.2,0.1,5.9,3,6.2l1.2,0.2c0.3,0.2,0.2,1.1-0.1,1.2c-2.4-0.1-4.1-0.2-6-0.2c-2,0-3.8,0-6,0.2c-0.3-0.2-0.4-0.9-0.1-1.2l0.9-0.2
		c3-0.4,2.9-1,3-6.2v-7c0-1.5-0.1-1.6-2.5-1.6H97.2z"/>
	<path class="st0" d="M136.4,24.2c0.7-0.3,0.8-0.7,0.8-1.4l0.1-2.3c0-1.8-0.5-4.3-3.6-4.3c-1.4,0-3.1,0.7-3.2,2.2
		c0,0.8-0.1,1.4-0.5,1.7c-0.7,0.6-2.1,0.9-2.8,0.9c-0.4,0-0.7-0.2-0.7-0.7c0-2.6,5.6-6.1,9.3-6.1c3.6,0,5.3,2.1,5.2,5.8l-0.3,8.7
		c-0.1,2.3,0.3,4.3,2.3,4.3c0.5,0,0.9-0.1,1.2-0.3c0.2-0.1,0.5-0.3,0.6-0.3c0.2,0,0.3,0.3,0.3,0.6c0,0.2-1.7,2.2-4.2,2.2
		c-1.2,0-2.4-0.4-3.2-1.5c-0.2-0.3-0.5-0.7-0.8-0.7c-0.3,0-0.9,0.4-1.9,1c-1.1,0.6-2.2,1.2-3.6,1.2c-1.4,0-2.6-0.4-3.5-1.1
		c-0.9-0.8-1.5-2.1-1.5-3.5c0-1.9,0.9-3.1,4.1-4.2L136.4,24.2z M133.3,32.9c1,0,2.5-0.7,3-1.2c0.6-0.6,0.6-1.3,0.6-2.3l0.1-2.9
		c0-0.5-0.2-0.6-0.5-0.6c-0.3,0-1.1,0.2-2,0.5c-2.9,1-4.4,1.7-4.4,3.7C130.2,30.8,130.8,32.9,133.3,32.9z"/>
	<path class="st0" d="M150.1,20.2c0-1.9,0-2.2-1.3-3.1l-0.4-0.3c-0.2-0.2-0.2-0.7,0.1-0.9c1.1-0.4,4-1.7,5-2.4
		c0.2,0,0.4,0.1,0.5,0.3c-0.1,1.1-0.1,1.9-0.1,2.3c0,0.3,0.2,0.5,0.5,0.5c2.1-1.3,4.4-2.5,7-2.5c4.1,0,5.8,2.8,5.8,6.2v8.6
		c0,3.6,0.1,4.1,1.9,4.3l1.1,0.2c0.3,0.2,0.3,1.1-0.1,1.2c-1.5-0.1-2.9-0.2-4.7-0.2c-1.8,0-3.3,0-4.6,0.2c-0.3-0.2-0.4-1-0.1-1.2
		l0.9-0.2c1.8-0.3,1.9-0.7,1.9-4.3v-7.4c0-2.8-1.3-4.9-4.7-4.9c-1.9,0-3.5,0.8-4.2,1.7c-0.6,0.8-0.7,1.5-0.7,3v7.6
		c0,3.6,0.1,4,1.9,4.3l0.9,0.2c0.3,0.2,0.2,1.1-0.1,1.2c-1.3-0.1-2.8-0.2-4.5-0.2c-1.8,0-3.3,0-4.7,0.2c-0.3-0.2-0.4-1-0.1-1.2
		l1-0.2c1.8-0.2,1.9-0.7,1.9-4.3V20.2z"/>
	<path class="st0" d="M176.8,20.2c0-1.9,0-2.2-1.3-3.1l-0.4-0.3c-0.2-0.2-0.2-0.7,0-0.9c1.1-0.4,4-1.7,5.1-2.4
		c0.3,0,0.5,0.1,0.5,0.3c-0.1,1.7-0.2,4.1-0.2,6.2v9c0,3.6,0.1,4.1,1.9,4.3l1,0.2c0.3,0.2,0.3,1.1-0.1,1.2c-1.5-0.1-2.9-0.2-4.7-0.2
		c-1.8,0-3.3,0-4.7,0.2c-0.3-0.2-0.4-1-0.1-1.2l1-0.2c1.8-0.2,1.9-0.7,1.9-4.3V20.2z M180.9,4c0,1.7-1.2,2.5-2.6,2.5
		c-1.5,0-2.5-1.1-2.5-2.4c0-1.6,1.2-2.6,2.7-2.6C180,1.5,180.9,2.6,180.9,4z"/>
	<path class="st0" d="M190.1,20.2c0-1.9,0-2.2-1.3-3.1l-0.4-0.3c-0.2-0.2-0.2-0.7,0-0.9c1.1-0.4,4-1.7,5-2.4c0.2,0,0.5,0.1,0.6,0.3
		c-0.1,1.1-0.1,1.9-0.1,2.3c0,0.3,0.2,0.5,0.5,0.5c2.1-1.3,4.4-2.5,7-2.5c4.1,0,5.8,2.8,5.8,6.2v8.6c0,3.6,0.1,4.1,1.9,4.3l1.1,0.2
		c0.3,0.2,0.3,1.1-0.1,1.2c-1.5-0.1-2.9-0.2-4.7-0.2c-1.8,0-3.3,0-4.6,0.2c-0.3-0.2-0.4-1-0.1-1.2l0.9-0.2c1.8-0.3,1.9-0.7,1.9-4.3
		v-7.4c0-2.8-1.3-4.9-4.7-4.9c-1.9,0-3.5,0.8-4.2,1.7c-0.6,0.8-0.7,1.5-0.7,3v7.6c0,3.6,0.1,4,1.9,4.3l0.9,0.2
		c0.4,0.2,0.3,1.1-0.1,1.2c-1.3-0.1-2.8-0.2-4.5-0.2c-1.8,0-3.3,0-4.7,0.2c-0.3-0.2-0.4-1-0.1-1.2l1-0.2c1.8-0.2,1.9-0.7,1.9-4.3
		V20.2z"/>
	<path class="st0" d="M234.2,15.9c0.5,0.2,0.4,1.9-0.3,2h-3.6c0.1,0.8,0.1,1.7,0.1,2.5c0,3.4-2,7.9-8.4,7.9c-0.9,0-1.6-0.1-2.2-0.2
		c-0.6,0.3-2.2,1.3-2.2,2.7c0,1.1,1.1,2.1,3.5,2.1c1.7,0,3.7-0.1,5.9-0.1c2.8,0,7,0.5,7,5.5c0,5.4-5.9,9.4-12.4,9.4
		c-6.1,0-8.3-3.3-8.3-5.8c0-0.8,0.2-1.4,0.5-1.8c0.8-0.9,2.2-2.2,3.4-3.3c0.4-0.4,0.8-0.9,0.4-1.2c-1.9-0.5-3.6-2.2-3.6-3.9
		c0-0.3,0.2-0.4,0.7-0.8c0.8-0.5,1.8-1.4,2.6-2.3c0.3-0.3,0.5-0.7,0.5-0.9c-1.7-0.9-3.7-2.8-3.7-6c0-4.3,3.7-7.5,8.1-7.5
		c1.9,0,3.6,0.5,4.8,1c1.6,0.7,1.9,0.8,3,0.8H234.2z M223.8,36.1c-1.6,0-3.6,0.1-4.3,0.5c-1.2,0.7-2.4,2.3-2.4,4.2
		c0,2.7,2.1,4.9,6.7,4.9c4.4,0,7.4-2.5,7.4-5.3c0-3-2.1-4.3-5.7-4.3H223.8z M226.8,21.8c0-3.4-1.4-6.2-4.4-6.2
		c-2.4,0-4.2,2.2-4.2,5.6c0,3.5,2.1,5.8,4.5,5.8C225.5,27,226.8,24.9,226.8,21.8z"/>
	<path class="st0" d="M241.2,21.7c-1.3,0-1.3,0.1-1.3,1.3c0,5,2.9,9.3,8.3,9.3c1.6,0,3-0.5,4.6-2.4c0.5-0.2,0.8,0.1,0.9,0.6
		c-1.6,3.4-5.2,4.6-7.8,4.6c-3.2,0-5.8-1.4-7.2-3.3c-1.5-1.9-2.1-4.3-2.1-6.5c0-6.1,4-11.3,10-11.3c4.3,0,7.1,2.9,7.1,5.9
		c0,0.7-0.1,1.1-0.2,1.3c-0.1,0.3-0.8,0.3-2.9,0.3H241.2z M244.3,20.2c3.7,0,4.8-0.2,5.2-0.5c0.1-0.1,0.3-0.3,0.3-0.9
		c0-1.4-0.9-3.1-3.8-3.1c-2.9,0-5.5,2.7-5.5,4.3c0,0.1,0,0.2,0.4,0.2H244.3z"/>
	<path class="st0" d="M88.6,52.2c0-2.9,0-3.2-1.5-4.1l-0.5-0.3c-0.2-0.1-0.2-0.8,0-1c1.2-0.4,3.6-1.1,5.4-2.1c0.2,0,0.4,0.1,0.5,0.3
		c-0.1,1.5-0.1,4-0.1,6.2v17.1c0,0.6,0.1,0.7,0.9,0.7c1.1,0,2-0.5,3.4-1.9l2-2.2c1.4-1.5,1.7-2,1.7-2.3s-0.2-0.4-1.1-0.5L98.1,62
		c-0.5-0.2-0.5-1.1,0-1.2h1.1c2.2,0,5.1-0.1,7.9-0.4c0.3,0.1,0.4,1,0.1,1.2l-1.6,0.3c-1,0.2-1.8,0.7-3.1,1.7
		c-1.9,1.5-3.6,3.3-4.5,4.2c-0.6,0.5-0.6,0.8-0.4,1.2c0.8,1.1,1.6,2.1,3.3,4c1.9,2.2,3.7,4.1,4.7,5.1c0.7,0.6,1.7,0.9,2.6,1.1
		l0.7,0.1c0.4,0.2,0.3,1.1-0.1,1.2c-1.4-0.1-3.1-0.2-4.7-0.2c-2,0-3.7,0.1-5.2,0.2c-0.4-0.2-0.4-1-0.1-1.2l0.9-0.2
		c0.7-0.1,1.2-0.2,1.2-0.5c0-0.3-0.2-0.6-0.8-1.4L94.8,71c-0.4-0.5-1-0.7-1.5-0.7c-0.9,0-0.9,0.1-0.9,1.7v2.7c0,3.6,0.1,4.1,1.9,4.3
		l1.2,0.2c0.4,0.2,0.2,1.1-0.1,1.2c-1.6-0.1-3.1-0.2-4.8-0.2c-1.8,0-3.3,0.1-4.8,0.2c-0.3-0.2-0.4-1,0-1.2l1.1-0.2
		c1.8-0.3,1.9-0.7,1.9-4.3V52.2z"/>
	<path class="st0" d="M131.2,70.3c0,6.2-4.3,10.7-10.5,10.7c-5.7,0-10.2-4-10.2-10.3c0-6.3,4.7-10.8,10.6-10.8
		C126.7,60,131.2,64.2,131.2,70.3z M120.5,61.5c-3.3,0-5.7,3.1-5.7,8.6c0,4.5,2,9.4,6.4,9.4c4.4,0,5.7-4.6,5.7-8.4
		C126.9,66.9,125.2,61.5,120.5,61.5z"/>
	<path class="st0" d="M164.8,67.6c0-3.4-1.5-5.1-4.6-5.1c-1.9,0-3.4,0.8-4.1,1.7c-0.6,0.7-0.7,1.2-0.7,3v7.6c0,3.6,0.1,4.1,1.9,4.3
		l1,0.2c0.3,0.2,0.3,1.1-0.1,1.2c-1.5-0.1-2.9-0.2-4.7-0.2c-1.8,0-3.1,0.1-4.5,0.2c-0.3-0.2-0.4-1-0.1-1.2l0.9-0.2
		c1.8-0.3,1.9-0.7,1.9-4.3v-7.2c0-3.3-1.5-5.1-4.6-5.1c-2,0-3.4,0.9-4.2,1.8c-0.5,0.6-0.7,1.2-0.7,2.8v7.7c0,3.6,0.1,4,1.9,4.3
		l0.9,0.2c0.3,0.2,0.3,1.1-0.1,1.2c-1.3-0.1-2.8-0.2-4.5-0.2c-1.8,0-3.3,0.1-4.8,0.2c-0.3-0.2-0.4-1-0.1-1.2l1.2-0.2
		c1.8-0.3,1.9-0.7,1.9-4.3v-8.7c0-1.9,0-2.2-1.3-3.1l-0.4-0.3c-0.2-0.2-0.2-0.7,0-0.9c1.1-0.4,4-1.7,5-2.4c0.2,0,0.5,0.1,0.5,0.3
		c-0.1,1.1-0.1,1.9-0.1,2.3c0,0.3,0.2,0.5,0.5,0.5c1.9-1.3,4.2-2.5,6.6-2.5c2.5,0,3.9,0.9,5.3,2.9c0.4,0.1,0.8-0.1,1.2-0.4
		c2-1.4,4.4-2.5,6.8-2.5c4,0,5.9,2.7,5.9,6.2v8.6c0,3.6,0.1,4.1,1.9,4.3l1.2,0.2c0.3,0.2,0.3,1.1-0.1,1.2c-1.6-0.1-3.1-0.2-4.8-0.2
		c-1.8,0-3.1,0.1-4.5,0.2c-0.3-0.2-0.4-1-0.1-1.2l0.9-0.2c1.8-0.3,1.9-0.7,1.9-4.3V67.6z"/>
	<path class="st0" d="M204.5,67.6c0-3.4-1.5-5.1-4.6-5.1c-1.9,0-3.4,0.8-4.1,1.7c-0.6,0.7-0.8,1.2-0.8,3v7.6c0,3.6,0.1,4.1,1.9,4.3
		l1,0.2c0.3,0.2,0.3,1.1-0.1,1.2c-1.5-0.1-2.9-0.2-4.7-0.2c-1.8,0-3.1,0.1-4.5,0.2c-0.3-0.2-0.5-1-0.1-1.2l0.9-0.2
		c1.8-0.3,1.9-0.7,1.9-4.3v-7.2c0-3.3-1.5-5.1-4.6-5.1c-2,0-3.4,0.9-4.2,1.8c-0.5,0.6-0.7,1.2-0.7,2.8v7.7c0,3.6,0.1,4,1.9,4.3
		l0.9,0.2c0.3,0.2,0.2,1.1-0.1,1.2c-1.3-0.1-2.8-0.2-4.5-0.2c-1.8,0-3.3,0.1-4.8,0.2c-0.3-0.2-0.4-1-0.1-1.2l1.2-0.2
		c1.8-0.3,1.9-0.7,1.9-4.3v-8.7c0-1.9,0-2.2-1.3-3.1l-0.4-0.3c-0.2-0.2-0.2-0.7,0-0.9c1.1-0.4,4-1.7,5-2.4c0.2,0,0.4,0.1,0.5,0.3
		c-0.1,1.1-0.1,1.9-0.1,2.3c0,0.3,0.2,0.5,0.5,0.5c1.9-1.3,4.2-2.5,6.6-2.5c2.5,0,3.9,0.9,5.3,2.9c0.4,0.1,0.8-0.1,1.2-0.4
		c2-1.4,4.4-2.5,6.8-2.5c4,0,5.9,2.7,5.9,6.2v8.6c0,3.6,0.1,4.1,1.9,4.3l1.2,0.2c0.3,0.2,0.3,1.1-0.1,1.2c-1.6-0.1-3.1-0.2-4.8-0.2
		c-1.8,0-3.1,0.1-4.5,0.2c-0.3-0.2-0.4-1-0.1-1.2l0.9-0.2c1.8-0.3,1.9-0.7,1.9-4.3V67.6z"/>
	<path class="st0" d="M220.9,73c0,3.4,0.8,5.7,4.6,5.7c1.3,0,2.9-0.6,4-1.5c0.6-0.6,1-1.3,1-2.9v-8.2c0-3.2-0.3-3.3-1.8-3.9
		l-0.6-0.3c-0.3-0.2-0.3-0.9,0.1-1.1c2,0,4.7-0.4,5.8-0.9c0.3,0.1,0.4,0.1,0.4,0.3c-0.1,0.9-0.2,2.5-0.2,4.3v8.4
		c0,3.9,0.2,5.4,1.5,5.4c0.6,0,1.2-0.1,1.9-0.3c0.3,0.3,0.4,1.2,0,1.4c-1.9,0.4-4.8,0.9-6.5,1.8c-0.3,0-0.5-0.1-0.6-0.3v-2
		c0-0.5-0.2-0.7-0.4-0.7c-1.5,0.9-3.9,2.6-6.9,2.6c-4.4,0-6-2.2-6-6.2v-8.3c0-3.1,0-3.6-1.5-4.2l-0.6-0.3c-0.3-0.3-0.2-0.9,0.1-1.1
		c2.3,0,4.2-0.5,5.3-0.9c0.3,0.1,0.5,0.1,0.5,0.3c-0.1,0.8-0.1,1.9-0.1,4.3V73z"/>
	<path class="st0" d="M243.9,66.1c0-1.9,0-2.2-1.3-3.1l-0.4-0.3c-0.2-0.2-0.2-0.7,0.1-0.9c1.1-0.4,4-1.7,5-2.4
		c0.2,0,0.4,0.1,0.6,0.3c-0.1,1.1-0.1,1.9-0.1,2.3c0,0.3,0.2,0.5,0.5,0.5c2.1-1.3,4.4-2.5,7-2.5c4.1,0,5.8,2.8,5.8,6.2v8.6
		c0,3.6,0.1,4.1,1.9,4.3l1.1,0.2c0.3,0.2,0.2,1.1-0.1,1.2c-1.5-0.1-2.9-0.2-4.7-0.2c-1.8,0-3.3,0.1-4.6,0.2c-0.3-0.2-0.5-1-0.1-1.2
		l0.9-0.2c1.8-0.3,1.9-0.7,1.9-4.3v-7.4c0-2.8-1.3-4.9-4.7-4.9c-1.9,0-3.5,0.8-4.2,1.7c-0.6,0.8-0.7,1.5-0.7,3v7.6
		c0,3.6,0.1,4,1.9,4.3l0.9,0.2c0.3,0.2,0.3,1.1-0.1,1.2c-1.3-0.1-2.8-0.2-4.5-0.2c-1.8,0-3.3,0.1-4.7,0.2c-0.3-0.2-0.4-1-0.1-1.2
		l1-0.2c1.8-0.3,1.9-0.7,1.9-4.3V66.1z"/>
</g>
<g>
	<path class="st1" d="M69.7,0l0,42.3c0,0-0.3,9.3-0.9,12.2c-2.9,13.8-13.5,24.1-27.5,26.7c-2.2,0.4-4.4,0.6-6.5,0.6
		c-6.6-0.1-11.7-1.9-16.2-4.3c-3.1-1.6-9.4-7.2-9.8-7.8c-0.1-0.1-1.1-1.4-1.4-1.8C5,64.7,2.7,60.4,1.8,56C1.4,54.3-0.1,47.3,0,41.4
		C0.1,40.9,0,0,0,0L69.7,0z"/>
	<path class="st2" d="M0.8,0.8c0,9,0,39.3,0,39.3l68,0l0-39.3L0.8,0.8z"/>
	<g>
		<path class="st2" d="M32.8,56.9c-0.4,1.2-0.2,2.9-0.4,4.5c-0.2,2.5-0.3,5.1-0.4,7.6c0,0,0.1,0.3,0.1,0.4c0,1.2-0.1,2.9-0.7,3.6
			c-0.5,0.5-1.3,0.5-2,0.4c-2.7-0.5-8.7-3.8-9.4-6.2c-0.2-0.9,0.3-1.7,0.5-2.2c-2-0.5-4.3-1.2-6.8-1.2c0.3,2.7,0.9,4.6,1.9,6.5
			c0.6-0.3,1.4-0.5,2.2-0.1c0.7,0.3,1.1,0.9,1.7,1.4c1,0.8,2,1.7,3.1,2.4c2.6,1.7,5.7,2.9,8.9,4.1c0.6,0.2,3,1.6,3.3,1.6
			c0.3,0,2.3-1.1,2.8-1.3c3.2-1.2,6.6-2.5,9.2-4.3c1.7-1.2,3.1-3.1,4.9-4.1c0.8-0.5,1.9,0.5,2.4,0.1c0.8-0.7,1.5-4.7,1.5-6.4
			c-1.1,0.2-2.2,0.2-3.2,0.4c-1,0.3-2,0.8-3.1,1.1c0.1,0.8,0.5,2.1,0,2.9c-1,1.5-8.3,6.5-10.7,5.3c-0.3-0.2-0.8-0.8-0.9-1.2
			c-0.3-1.3-0.1-2.9-0.1-4.1c-0.1-3.7-0.1-7.4-0.6-11C35.5,56.9,34.3,56.9,32.8,56.9z"/>
		<path class="st2" d="M24.5,53.2c-0.4,0.1-1,0.2-1.5,0.3c0,0.6-0.1,1.3-0.1,2c0.5,0.2,1.4,0.5,2.1,0.4c0.8-0.1,0.4-2.1,0.4-2.7
			C25,53.2,24.7,53.2,24.5,53.2z"/>
		<path class="st2" d="M28.3,53c0,0,0.1,2.1,0,2.9l0.1,0.1c0.6,0.2,9.7,0.2,13-0.1c0.1-0.5,0.1-1,0-1.4v-1.5L28.3,53z"/>
		<path class="st2" d="M44.9,53.1c-0.7,0.1-0.3,2.2-0.3,2.7c0.5,0,0.8,0,1.2-0.1c1.7-0.3,1.2-0.8,1.2-2.4
			C46.4,53.3,45.5,53,44.9,53.1z"/>
		<path class="st2" d="M26.2,51.9c-0.1,1-0.1,2.3,0,3.1c0,0,0,0.7,0,0.7c-0.2,1.3,0,1.5,1.3,1.2c0-0.9,0-1.8,0-2.6
			c0-0.9,0-1.4-0.1-2.4C27,51.9,26.6,51.9,26.2,51.9z"/>
		<path class="st2" d="M42.3,51.9c-0.1,1-0.2,2-0.1,3.1c0,0.6-0.1,1.1,0.1,1.7c0.1,0.5,1.1,0.5,1.4,0.2c0,0-0.1-0.4-0.1-0.4
			c0,0,0-0.4,0-0.6c0.1,0,0-3.5-0.1-4C43.2,51.9,42.7,51.9,42.3,51.9z"/>
		<path class="st2" d="M34.3,45.5c-0.3,0.1-0.9,0.5-1,0.8c-0.2,0.6,0,1.2-0.1,1.7c-0.1,1.2-0.3,2.8-0.2,4.2c1.2,0,2.4,0,3.5,0
			c0.1-0.8,0-5.3-0.4-6C36,45.6,35.1,45.3,34.3,45.5z"/>
		<path class="st2" d="M34.2,41.9c-1.8,0.2-3.2,1.7-3.6,3.2c-0.4,1.5,0.1,3,0.9,3.9c0.2,0.2,0.4,0.4,0.6,0.6l0.2-0.1
			c0-0.5,0.2-0.9,0.1-1.4c-0.1-0.6-0.8-1.1-0.8-1.9c0-0.5,0.2-1.1,0.4-1.4c1-2.2,4.6-2.3,5.8-0.2c0.7,1.1,0.4,2.5-0.2,3.5
			c-0.2,0.4-0.4,2,0.3,1.5C40.9,47.1,38.6,41.4,34.2,41.9z"/>
	</g>
	<g>
		<path class="st3" d="M48.9,17.3c-0.2,0-0.3,0-0.5,0c-0.1,0-0.3,0.3-0.4,0.3c0,0-0.3,0-0.1-0.1c0.6-0.3,1.4-1.6,0.9-2.4
			c-0.1-0.2-0.2-0.4-0.6-0.4l-0.1,0.1c-0.1,0.1-0.2,0-0.4,0.1c0,0,0,0.2-0.1,0.2c-0.2,0.2-0.5,0.3-0.6,0.5c0.3-0.5,0.9-1.9,0.5-2.7
			c0,0-0.3-0.3-0.3-0.3c-1-0.5-1.7,1.4-1.9,2c-0.1,0.2,0.1-0.7,0.1-0.8c0.1-0.5,0.1-1,0-1.3c-0.1-0.2,0-0.2-0.1-0.4
			c-0.1-0.2-0.9-0.3-1.2-0.1c-0.1,0.1-0.2,0.6-0.3,0.8c-0.2,0.5-0.7,1.5-1.2,1.8c-0.1,0.1,0-0.2,0-0.2c0.1-0.2,0.3-0.3,0.4-0.4
			c0.2-0.5,0.3-1.7-0.3-1.8c-0.3-0.1-0.4,0.1-0.5,0.1c-1,0.3-0.9,1.1-1.5,1.7c0,0-0.1,0.2-0.1,0.2c-0.2,0.1-0.4,0-0.6,0.1
			c0-0.1-0.2-0.2-0.1-0.4l0.1-0.1c0.1-0.3,0.5-1.1,0.2-1.5c0-0.1-0.2-0.1-0.3-0.1c-0.2,0.1-0.4,0.3-0.6,0.4c-0.2,0.1-0.3,0-0.4,0.1
			c0,0-0.1,0.2-0.1,0.2c-0.1,0.1-0.2,0-0.3,0.1c-0.2,0.2-0.4,0.5-0.6,0.6c-0.2,0.1-0.2,0-0.4,0.1C37.3,13.7,37.1,14,37,14
			c-0.2,0.1-0.3,0-0.5,0.1c-0.3,0.1-0.7,0.3-1,0.4c-1.2,0.3-2.6,0.4-4.2,0.3c-0.4,0-0.9,0-1.1,0c-0.3-0.1-0.8-0.3-1.1-0.4
			c-0.3-0.1-0.5,0-0.8-0.1c-0.6-0.2-1.4-0.8-1.8-1.2c-0.1-0.1-0.1-0.3-0.2-0.4c-0.1-0.2-0.4-0.3-0.5-0.5c-0.1-0.1,0-0.2-0.1-0.3
			c-0.2-0.2-0.4-0.4-0.6-0.6c-0.2-0.3-0.4-0.8-0.6-1.1c0,0-0.2-0.1-0.2-0.1c-0.2-0.1-0.2-0.4-0.4-0.5h-0.1c-0.2-0.1-0.4-0.5-0.6-0.6
			c-0.5-0.4-1.1-0.8-1.5-1.3c-0.1-0.1-0.1-0.2-0.1-0.4C21.4,7,21,6.7,20.8,6.5c-0.2-0.2-0.1-0.4-0.3-0.6c-0.4-0.7-1.1-1.6-1.9-1.9
			c-0.3-0.1-0.5-0.1-0.9-0.1c-0.3,0-0.6-0.2-1-0.1c-0.2,0-1,0.6-1,0.8C15.4,5.3,16,5.9,15,6c-0.7,0.1-1.3-0.2-1.7-0.4
			c0,0.4,0,0.7-0.2,0.9c-0.3,0.4-1,0.4-1.4,0.7c-0.1,0.1-0.1,0.4-0.1,0.4s0.1,0.1,0.1,0.1c0.4,0,0.6,0,0.9,0.1c0,0.1,0,0.1,0,0.2
			c0,0.1-0.9,0.7-1,0.9c0.1,0.1,0.2,0.1,0.3,0.1c0.4,0.2,0.9,0.3,1.4,0.4c-0.3,0.4-0.6,0.7-1,1.1c0,0.1,0.1,0.4,0.1,0.4
			c1,0,2.4,0,2.8,0.6c0.1,0.2,0.3,1,0.4,1.3c0.4,1.1,0.4,2,0.6,3.2l0.1,0.2c0,0.2,0,0.3,0,0.5c0,0.1,0.2,0.6,0.3,0.7
			c0.1,0.6,0.2,1,0.4,1.7c0.2,0.6,0.6,1.4,0.8,1.9c0.1,0.3,0.1,0.5,0.2,0.8c0.1,0.1,0.3,0.4,0.4,0.5c0,0.1,0,0.1,0,0.2
			c0.1,0.1,0.3,0.2,0.4,0.4c0,0.1,0,0.2,0.1,0.3c0,0.1,0.2,0.1,0.2,0.1c0.2,0.3,0.4,0.7,0.6,1c0.2,0.2,0.4,0.3,0.6,0.5
			c0.5,0.6,1,1.2,1.6,1.7c0.4,0.3,0.8,0.5,1.3,0.7c0.1,0.1,0.3,0.3,0.4,0.4c1.6,0.9,3.3,1.7,5.2,2.2c0,0.1,0,0.2,0,0.4l-0.1,0.1
			c-0.4,0.6-0.8,0.9-1.3,1.4c-0.1,0.1-0.3,0.4-0.3,0.4c-0.1,0.1-0.2,0-0.3,0.1c0,0,0,0.2,0,0.3c0.2,0.1,0.4,0.1,0.6,0.2
			c0,0.1,0,0.2-0.1,0.3c-0.2,0.2-0.4,0.5-0.6,0.7L26.8,34c-0.5,0.5-1.6,1.5-2.5,1.2c0,0-0.2-0.2-0.2-0.2c-0.4-0.2-1.3-0.5-1.9-0.4
			c-0.4,0.1-0.5,0.5-0.2,0.4v0.1c-0.5,0.1-1.7,0.2-1.9,0.4c0,0,0,0.2-0.1,0.2c-0.3,0.2-0.8,0.1-0.9,0.4c-0.1,0.2-0.2,1.1-0.1,1.2
			c0.1,0.1,0.2,0,0.3,0.1c0.3-0.2,0.6-0.4,0.8-0.7c0.1-0.1,0.1-0.2,0.1-0.4c0.6,0.2,1,0.1,1.7-0.1l0.2-0.1c0.2,0,0.1,0.1,0.3,0.1
			c-0.3,0.1-0.8,0.4-0.9,0.6c0,0,0,0.3-0.1,0.3c-0.4,0.2-0.8-0.1-1.1,0.1v0.1c0,0-0.1,0.1-0.1,0.1c0,0.5,0.1,0.8,0.1,1.1
			c0.1,0,0.3,0,0.4,0c0.3-0.3,0.5-0.5,0.8-0.8c0.3,0.1,0.5,0.2,0.9,0.2c0.4,0,0.8-0.4,1.1-0.5c0.7-0.4,1.9-0.7,3.1-0.5
			c0.3,0,1,0.4,1.3,0.5c0,0,0.2,0.2,0.2,0.2c0.2,0,0.3,0,0.5,0c-0.1,0.5-0.4,1.6,0.4,1.3c0.3-0.1,0.4-0.6,0.5-1c0,0,0.2-0.4,0-0.4
			c-0.1-0.4-0.1-0.7,0.1-1.1c-0.4-0.4-0.6-0.4-1.4-0.5c-1.2-0.1-0.9-0.2-0.4-0.7c0.8-0.7,1.5-1.4,2.3-2.1c0.3,0.2,0.5,0.3,0.8,0.4
			c0.1-0.5,0.4-1.2,0.8-1.4c0.1,0,0.1,0,0.2,0c0.2,0.2,0.3,0.3,0.4,0.4c0.4-0.6,0.8-1.1,1.2-1.6c0.2-0.3,0.2-0.5,0.5-0.6
			c0,0,0,0,0-0.1c0.3-0.1,0.6,0.1,0.9,0.1c0.4,0,1.7-0.1,2.2-0.1c-0.1,1.5-0.9,2.3-1.7,3.2c0,0,0,0.2,0,0.2c0.4-0.1,0.7-0.1,1.2-0.2
			c-0.2,0.7-0.4,1.8-1,2.1c-0.9,0.5-1.7-0.4-2.4-0.5c-0.2,0-0.9,0.1-1,0.1c-0.1,0-0.1,0.2-0.1,0.2c0,0,0,0.4,0.1,0.3
			c0,0,0.2,0.1,0.3,0.1c0.2,0,0.6-0.2,0.8-0.1c0.1,0,0.1,0.2,0.1,0.2c-0.7,0.1-2.5-0.2-2.9,0.1c-0.1,0.1,0,0.4-0.1,0.4
			c-0.1,0.1-0.3,0-0.4,0.1c-0.3,0.2-0.3,0.8-0.4,1.2c0.4,0.3,0,0.1,0.6,0.3c0.2-0.3,0.4-0.5,0.5-0.9c0.2,0,0.1,0.1,0.3,0.1
			c0.5,0,1.1-0.6,1.9-0.4l0.1,0.1c-0.4,0.1-0.8,0-1.2,0.1c-0.5,0.2-0.4,0.5-0.6,0.6c-0.1,0-0.2,0-0.3,0c-0.4,0.1-0.5,0.7-0.2,1.1
			c0.3,0.4,0.5,0.1,0.7-0.1c0.1-0.1,0-0.1,0.1-0.3c0.6,0,1.1,0,1.5-0.1c0.7-0.2,1.1-0.7,1.9-0.9c0.9-0.2,2,0,3,0.3
			c0.2,0,0.4,0.3,0.6,0.3c0.1,0,0.2,0,0.2,0c0.2,0.1,0.3,0.4,0.5,0.4c0.2,0.1,0.3-0.2,0.6-0.1c0,0,0,0.3,0,0.3
			c0.2,0.1,0.5,0.1,0.6,0.2l0.1,0.1c0.1,0,0.2,0,0.3,0c0.1-0.3,0.4-0.9,0.2-1.4c0-0.1-0.2-0.2-0.2-0.3c-0.1,0-0.3,0-0.4,0
			c0-0.2,0-0.4,0-0.5c-0.2-0.1-0.6-0.3-0.9-0.3c-0.5-0.1-1,0.1-1.2,0.1c-0.5,0-1.3-0.2-1.2-0.9c0-0.1,0.2-0.3,0.3-0.4
			c0.2-0.3,0.4-0.7,0.6-1c0.1-0.1,0.1-0.3,0.2-0.4c0,0,0.2,0,0.2-0.1c0,0,0.1,0.2,0.1,0.2c0.1,0,0.1,0,0.2,0
			c0.2-0.4,0.4-0.6,0.6-0.9c0.1-0.2,0.1-0.4,0.3-0.6c0,0,0.2,0,0.2-0.1c0.1,0.2,0.2,0.5,0.3,0.6c0.1,0.1,0.2,0.1,0.3,0.1
			c0-0.1,0.2-0.2,0.2-0.2c0.1-0.2,0-0.7,0-0.7c0.2-0.7,0.5-1,1-1.4c1,0.9,2,1.8,3,2.8c0.1,0.1,0.1,0.3,0.2,0.4h0.1
			c0,0,1.2,1.2,1.2,1.3c0.3,0.3,0.4,0.6,0.6,0.9c0,0.1,0.2,0.1,0.2,0.1c0.1,0.2,0.2,0.6,0.4,0.8c0.1,0.1,0.6,0.2,0.9,0.1
			c0.2,0,0.2-0.2,0.3-0.4c0.6-1.2-1.1-3.4-1.7-4c0,0-0.1-0.1-0.1-0.1c-0.1-0.1-0.1-0.1-0.1-0.2c-0.1,0-0.1-0.1-0.1-0.1
			c0,0-0.1-0.1-0.1-0.1c0,0-0.1-0.1-0.1-0.1c0-0.1-0.1-0.1-0.1-0.1c0,0,0-0.1-0.1-0.1c-0.1-0.1-0.1-0.1-0.2-0.3c0,0-0.1-0.1-0.1-0.1
			c-0.1-0.1-0.2-0.1-0.3-0.2c-0.1-0.1-0.1-0.3-0.2-0.4c-0.1,0-0.1-0.1-0.1-0.1c0,0,0,0,0,0c0,0,0,0,0,0c-0.1-0.1-0.1-0.2-0.2-0.3
			c-0.1-0.1-0.2-0.2-0.3-0.3c-0.1-0.1-0.2-0.2-0.3-0.3c-0.1-0.1-0.3-0.2-0.4-0.4c-0.1-0.1-0.1-0.2-0.1-0.2c-0.1-0.1-0.1-0.1-0.1-0.1
			c-0.6-0.5-1.2-0.9-1.9-1.3c-0.1-0.1-0.3-0.3-0.4-0.4c-0.1,0-0.2,0-0.3,0c0,0.3,0,0.6-0.1,0.9c-0.2,0.6-1.2,0.7-1.9,0.6
			c-0.7-0.1-1.2-0.5-1.9-0.7l-0.1-0.1c-0.1-0.1-0.2,0-0.4-0.1c-0.1-0.1-0.2-0.3-0.4-0.4c-0.2-0.1-0.3,0-0.5-0.1
			c-0.1,0-0.1-0.2-0.1-0.2c-0.3-0.2-0.7-0.4-1-0.6c-1-0.4-2-0.5-3.1-0.9c-0.1,0-0.4-0.2-0.5-0.3c-0.2-0.1-0.4,0-0.6-0.1
			c-0.1,0-0.3-0.3-0.4-0.3c-0.1,0-0.2,0-0.2,0c-0.1,0-0.2-0.2-0.3-0.3C29,25,28.8,25,28.6,24.9c-0.4-0.2-0.7-0.6-1.1-0.9
			c-0.1,0-0.2,0-0.3-0.1c-0.1,0-0.1-0.2-0.1-0.2c-0.2-0.2-0.5-0.2-0.6-0.4c-1.2-1-2.1-2.4-2.1-4.6c0,0,0.2-0.1,0.2-0.1
			c0.1,0.4,0.2,0.9,0.3,1.4c0.2,0.8,0.5,1.6,0.9,2.2c0.1,0.1,0.2,0.1,0.3,0.2c0.1,0.1,0.1,0.1,0.2,0.2c0.1,0.1,0.2,0.2,0.4,0.3
			c0.1,0.1,0.2,0.3,0.4,0.4c0.3,0.2,0.5,0.3,0.8,0.4c0.2,0.1,0.5,0.4,0.7,0.6c0.1,0.1,0.3,0,0.4,0.1c0.1,0.1,0.1,0.2,0.2,0.3
			c0.1,0,0.2,0,0.3,0c0.1,0,0.3,0.2,0.4,0.3c0.2,0.1,0.3,0,0.4,0.1c0.7,0.3,3.5,1.6,3.9,0.1c0.1-0.3,0.1-0.6,0-0.9L34,24.3
			c0-0.1,0-0.2,0-0.3c-0.2-0.4-0.7-0.7-0.9-1.1c-0.1-0.1,0.1-0.1,0.1-0.1c0.1,0.1,0.1,0.2,0.2,0.3c0.1,0,0.2,0,0.3,0.1
			c0,0,0,0.2,0.1,0.2c0.1,0.1,0.2,0.1,0.4,0.1c0.2,0.2,0.4,0.5,0.6,0.6c0.3,0.2,0.6,0.3,0.9,0.4c0,0,0.2,0.2,0.2,0.2
			c0.1,0,0.2,0,0.3,0v0.1c0.3,0.1,0.9-0.2,1.2-0.3c0.1-0.1,0.3-0.1,0.4-0.1c0.1-0.1,0.1-0.3,0.1-0.4c0.4-1.3-0.5-2.4-1.2-3
			c0.7,0.3,2.4,1.9,3.5,1.6c0.7-0.2,0.3-1.6,0.1-2c-0.2-0.3-0.5-0.5-0.7-0.7c-0.1-0.1,0.1-0.1,0.1-0.1c0,0,0.1,0.1,0.1,0.1
			c0.3,0.2,0.8,0.6,1.2,0.6c1.7,0.3,0.7-1.3,0.4-1.8c1,0.7,3.3,3.1,5.4,2.3l0.1-0.1c0.2-0.1,0.2,0,0.4-0.1c0.6-0.4,0.3-0.9,0-1.4
			c0.6-0.1,1-0.3,1.4-0.6c0.1-0.1,0.1-0.3,0.2-0.3h0.1c0.2-0.3,0.2-0.6,0.2-1C49,17.6,49,17.4,48.9,17.3z M17,5.8l-0.2-0.1l-0.1-0.1
			c0-0.5,0-0.5,0.1-0.8L17,4.7c0.1,0.1,0.2,0.1,0.4,0.3l0,0.2c0,0-0.2,0.5-0.2,0.6L17,5.8z M18.5,6.4c-0.4,0-0.7,0-0.9-0.1
			c-0.3-0.2-0.1-0.5,0-0.8l0.2,0c0,0,0.4,0.2,0.5,0.3c0.1,0.1,0.2,0.3,0.2,0.4L18.5,6.4z"/>
		<path class="st3" d="M43.4,26.6c0.4,0.3,0.8,0.4,1.2,0.7c0.7,0.5,1.3,1.3,1.8,1.9c0.1,0.2,0.4,0.3,0.5,0.4c0.4,0.5,0.6,1,0.9,1.5
			c0,0.1,0.2,0.1,0.2,0.1c0.1,0.2,0.1,0.3,0.2,0.5c0.1,0.2,0.4,0.5,0.5,0.7c0.4,0.9,0.8,1.8,0.6,3c-0.1,0-0.3,0.1-0.4,0.1
			c-0.4-0.3-0.4-0.6-0.6-1.1c-0.2-0.4-0.6-0.7-0.8-1c-0.2-0.3-0.2-0.5-0.4-0.8c-0.1-0.2-0.4-0.3-0.5-0.5c-0.1-0.1,0-0.2-0.1-0.3
			c-0.1-0.1-0.4-0.2-0.4-0.4v-0.1c-0.1-0.1-0.4-0.2-0.4-0.4V31c-0.1-0.1-0.4-0.2-0.4-0.4v-0.1c-0.1-0.2-1.1-0.9-1.2-1v-0.1
			c-0.2-0.2-0.4-0.2-0.6-0.4c-0.5-0.4-1-0.8-1.6-1.2l0.1-0.1c0.1-0.1,0.3,0,0.4,0C42.8,27.5,43.2,26.9,43.4,26.6z"/>
		<path class="st3" d="M45.5,25c1.6,1,3,3.2,3.8,4.9c0.1,0.1,0.1,0.1,0.1,0.2c0,0.1,0,0.2,0.1,0.3c0,0,0,0,0.1,0
			c0,0,0.1,0.1,0.1,0.1v0.1c0,0,0.1,0.1,0.1,0.1c0,0,0,0.2,0,0.2c0,0.1,0.2,0.2,0.2,0.3c0.1,0.3,0.9,3.2-0.4,2.4
			c-0.2-0.1-0.3-0.8-0.4-1l-0.1-0.1c-0.3-0.8-0.6-1.4-1.1-2.1c-0.2-0.2-0.4-0.4-0.6-0.6c-0.2-0.3-0.3-0.6-0.6-0.9
			c-0.2-0.2-0.5-0.3-0.6-0.5v-0.1c0-0.1-0.4-0.4-0.4-0.4c-0.6-0.5-1.1-1-1.7-1.4c0,0,0-0.2,0.1-0.2c0.2-0.1,0.3,0,0.6-0.1l0.1-0.1
			c0.3-0.2,0.6-0.2,0.6-0.6c0-0.1,0-0.2,0-0.3L45.5,25z"/>
		<path class="st3" d="M46.9,23c0.2,0,0.8,0.6,0.9,0.7c1.9,1.6,4.2,4.3,3.2,7.8c-0.3-0.1-0.5,0-0.6-0.1c-0.1-0.1-0.1-0.4-0.1-0.6
			c-0.1-0.3-0.4-0.6-0.5-0.9c-0.1-0.2-0.1-0.4-0.2-0.6l-0.1-0.1c-0.1-0.2-0.1-0.4-0.2-0.6c0,0-0.2-0.1-0.2-0.1
			c-0.1-0.2-0.1-0.4-0.2-0.6c0-0.1-0.2-0.1-0.2-0.1c-0.2-0.2-0.2-0.5-0.4-0.7H48v-0.1c0-0.1-0.3-0.3-0.4-0.4c-0.6-0.8-1.2-1.5-2-2
			l0.1-0.1c0.4-0.1,0.5-0.1,0.8-0.3c0.4-0.3,0.2-0.5,0.3-1C46.8,23,46.8,23,46.9,23z"/>
		<path class="st3" d="M42.3,20.1c0.4,0.3,0.7,0.7,1.2,0.9c0.3,0.2,0.5,0.1,0.9,0.3c0.1,0,0.2,0.2,0.2,0.2c0.1,0,0.1,0,0.2,0
			c0,0,0.1,0.1,0.1,0.1c0.1,0,0.2,0,0.3,0.1c0.4,0.2,0.8,0.7,1.1,1.1c0.1,0.1,0.3,0.3,0.3,0.4c0.1,0.8-0.7,0.9-1.4,0.9
			c0.2,1.7-0.4,1.8-2.2,1.6c0.1,1.8-1,1.5-2.4,1.3c0,0.6,0,1.1-0.3,1.5c-0.1,0.1-0.3,0.3-0.4,0.3c-0.2,0-0.5,0-0.7,0
			c-0.9-0.1-1.5-0.5-2.2-0.9c-0.2-0.1-0.4-0.1-0.6-0.2c-0.1-0.1-0.3-0.3-0.4-0.4c-0.7-0.4-1.4-0.7-2-1.1c0.6-0.4,1-0.8,0.9-1.8
			c0.1,0,0.1,0,0.2,0c0.1,0,0.1,0.2,0.2,0.3c0.2,0.1,0.5,0.3,0.6,0.4c0.9,0.3,2,0.1,2.4-0.6c0.1-0.2,0-0.2,0.1-0.4l0.1-0.1
			c0.1-0.5,0-1-0.1-1.4c0.4,0.2,1.5,0.7,2.2,0.4c0.1,0,0.1-0.2,0.1-0.2c0.1,0,0.2,0,0.2-0.1c0-0.1,0-0.2,0-0.3
			c0-0.2,0.2-0.4,0.1-0.8l-0.1-0.3c0-0.2,0.1-0.3,0.1-0.4C41.7,21.1,42.1,20.9,42.3,20.1z"/>
		<path class="st3" d="M13.7,2.7c0.6-0.1,1.4,0,1.9,0.2c0.1,0,0.3,0.2,0.4,0.3c0.1,0.1,0.2,0.1,0.4,0.1c-0.1,0.1-1,0.8-1,0.8
			c0,0.1,0,0.1,0,0.2c0,0-0.1,0.1-0.1,0.1c-0.1,0.3,0.1,0.8,0,1.1c0,0.1-0.2,0.1-0.3,0.2c-0.4,0-0.6,0-0.9-0.1
			c-0.2,0-2.1-1.1-2.1-1.2c0-0.1,0-0.2,0-0.3c0.6,0.1,0.9,0.1,1.6,0.1c-0.1,0,0.3,0.1,0.4,0.1V4.2c-0.1-0.1-0.2-0.1-0.4-0.1
			c-0.1-0.1-0.2-0.3-0.3-0.4c-0.2-0.1-0.4-0.1-0.6-0.3c-0.1-0.1-0.1-0.2-0.1-0.3C12.8,2.9,13.2,2.7,13.7,2.7z"/>
		<path class="st3" d="M48.5,2.6c1.9-0.2,0.4,1.7,0.1,2.1c-0.2,0.4-0.4,0.9-0.6,1.4c0.6-0.4,0.7-0.9,1.1-1.4
			c0.1-0.2,0.3-0.3,0.4-0.5c0.2-0.4,0.5-1.1,0.9-1.3c0.6-0.2,1.3-0.1,1.8,0.1c1.4,0.5,0,1.8-0.4,2.3c-0.4,0.4-0.6,0.8-0.9,1.3
			c-0.1,0.1-0.3,0.1-0.3,0.2c-0.1,0.2,0,0.3,0,0.4c0.4-0.3,0.5-0.5,0.8-0.9h0.1V6.1c0.1-0.2,0.5-0.4,0.6-0.5
			c0.1-0.1,0.1-0.3,0.2-0.4c0.1-0.1,0.3-0.2,0.4-0.3V4.7h0.1c0.1-0.2,0.5-0.8,0.7-0.9c0.3-0.1,0.9,0.1,1.1,0.1c0,0,0.1,0.1,0.1,0.1
			c0.3,0.2,0.7,0.3,0.9,0.6C56.2,5.6,55,6.6,54.5,7c-0.6,0.5-1.1,1.2-1.8,1.7c0.1,0.1-0.2,0.3,0.2,0.3c0.2,0,0.4-0.4,0.6-0.6
			c0.5-0.5,1-0.9,1.5-1.3c0.2-0.2,0.4-0.5,0.6-0.6c0.2-0.1,0.6-0.2,0.9-0.1c0.1,0,0.2,0.3,0.3,0.4c0.4,0.5,0.7,1.4,0.8,2.3
			c0,0.3,0,0.6-0.1,0.8c0,0,0,0-0.1,0c-0.1,0-0.2,0.2-0.3,0.3c-0.2,0.1-0.4,0.1-0.6,0.1c-0.7,0.2-1.7,0.5-2.3,0.9
			c-0.1,0-0.1,0.2-0.2,0.3c0.1,0,0.3,0,0.4,0l0.1-0.1c0.6-0.2,3.1-1.2,3.5-0.6c0.2,0.4,0.2,1.5,0.2,1.9c0,0.4,0.2,0.8-0.1,1.2
			c-0.3,0.5-1.3,0.2-1.9,0.4l-0.1,0.1c-0.4,0.1-0.8-0.2-1.3,0c0,0-0.1,0-0.1,0.1c0,0,0,0.2,0,0.2c0.8,0,2.9-0.4,3.2,0.3
			c0.1,0.2,0,0.4,0.1,0.6c0,0,0.2,1,0,0.8c0,0.5-0.1,1.2-0.5,1.3c-0.6,0.2-1.3-0.4-1.9-0.4c-0.2,0-0.6,0.1-0.9,0.1c0,0,0,0.2,0,0.2
			c0.5,0,2.6,0.4,2.8,0.9c0.2,0.5-0.1,1.9-0.3,2.3c-0.1,0.3-0.3,0.7-0.5,0.9c-0.2-0.1-0.3,0-0.4-0.1c-0.1,0-0.1-0.2-0.2-0.3
			c-0.1,0-0.2,0-0.3-0.1c-0.1,0-0.1-0.2-0.1-0.3c-0.4-0.3-1-0.4-1.5-0.6C54,20.2,53.8,20,53.7,20c-0.1,0-0.3,0-0.4,0
			c-0.3,0.1,1.1,0.7,1.2,0.8c0.5,0.2,0.8,0.4,1.2,0.6c0.2,0.1,0.6,0.3,0.6,0.5c0.2,0.7-0.7,2-1,2.3c-0.2-0.1-0.3,0-0.4-0.1
			c-0.3-0.1-0.5-0.8-0.8-1c-0.5-0.4-1.4-1-2.1-1.2c0,0.1-0.1,0.1,0,0.3c0.1,0.1,0.6,0.3,0.8,0.4c0.7,0.4,1.2,0.9,1.7,1.4
			c0.1,0.1,0.4,0.2,0.4,0.4c0,0.2,0,0.6,0,0.8c0,0.2-0.3,0.5-0.4,0.7c0,0.1,0,0.1,0,0.2c-0.1,0.2-0.7,0.8-0.9,0.8
			c-0.6,0.1-0.7-0.3-0.9-0.6c-0.2-0.3-0.6-0.6-0.8-0.9c-0.1-0.1-0.1-0.3-0.2-0.4c-0.4-0.6-1-1.2-1.6-1.7c-0.1-0.1-0.1-0.2-0.2-0.3
			c-0.1,0-0.2,0-0.3-0.1c-0.1,0-0.1-0.2-0.1-0.2c-0.6-0.4-1.3-0.4-2-0.7c-0.3-0.1-0.6-0.4-0.9-0.6c0,0,0.2-0.3,0.2-0.3
			c0.3-0.2,0.6-0.1,0.9-0.3c0.6-0.3,0.5-0.9,0.2-1.4c0.5-0.3,1.3-0.7,1.6-1.3c0.3-0.7,0-1.3-0.4-1.7c0.2-0.8,0.6-1.3,0.1-2
			c-0.3-0.4-0.5-0.5-1.2-0.4c0.1-0.7,0-1.7-0.4-2c-0.3-0.2-1-0.2-1.3,0c-0.1,0.1-0.1,0.3-0.2,0.4h-0.1c-0.2-0.9-0.4-1.2-1.4-1
			c-0.3,0-0.4,0-0.5,0.1c0,0-0.3,0.7-0.3,0.7c0,0-0.2,0-0.2,0c0,0,0-0.2-0.1-0.3c0-0.1-0.4-0.4-0.5-0.4c-1.4-0.4-1.8,1.4-2.3,2.1
			c0,0-0.2,0-0.3,0c0.1-0.1-0.1-0.1-0.1-0.1c-0.1-0.5,0.5-1,0.4-1.7c0,0-0.2-0.2-0.2-0.3c-0.1,0-0.2-0.2-0.5-0.1
			c-0.4,0.1-1.1,0.8-1.4,1c-0.7,0.5-1.5,0.9-2.3,1.2C36,12.5,36,11,36.6,10c0.1-0.2,0.4-0.4,0.5-0.6c0.2-0.3,0.5-0.7,0.8-0.8
			c0.2-0.1,0.3,0,0.5-0.1c0,0.1,0,0.2,0.1,0.2c0,0.8-0.1,1.4-0.2,2.1h0.1c0.3-0.9,0.2-2.4,0.6-3.2c0.1-0.2,0.4-0.3,0.5-0.5
			c0,0,0.1-0.3,0.1-0.3c0.1-0.1,0.2,0,0.3-0.1c0.1-0.1,0.2-0.3,0.4-0.4c0.1,0,0.2,0,0.3,0c0,0,0.1,0.2,0.1,0.2
			c0.1,0.5-0.1,1.1-0.1,1.4c-0.1,0.4-0.1,0.7-0.2,1.1c0.1,0,0.3-0.1,0.3-0.1c0.5-1.6,0.1-3.5,1.7-4.1c1.4-0.6,0.5,1.3,0.4,1.9
			c0,0.2,0,0.3,0,0.5H43c0.8-2.1,0.4-3.4,2.9-3.9c0.1,0.2,0.3,0.4,0.2,0.9c0,0.1-0.3,0.3-0.4,0.4c0,0.1,0,0.2,0,0.2
			c0,0.2-0.3,0.4-0.4,0.6c-0.2,0.4-0.2,0.6-0.2,1.2h0.1c0.1-0.1,0-0.2,0.1-0.4c0,0,0.1,0,0.1-0.1c0-0.1,0-0.2,0-0.3
			c0,0,0.2-0.2,0.2-0.2c0.1-0.2,0-0.3,0.1-0.4c0.2-0.4,0.5-0.9,0.7-1.2c0,0,0.3-0.5,0.3-0.5c0-0.1,0-0.2,0-0.2H47V3.2
			C47.4,3,47.9,2.6,48.5,2.6z"/>
	</g>
</g>
</svg>
